<svg width="30" height="26" viewBox="0 0 30 26" fill="none" xmlns="http://www.w3.org/2000/svg">
<path d="M2.23565 3.44333C5.24223 -0.810189 11.5083 -0.815289 14.523 3.43313L14.9934 4.09614L15.4152 3.49127C18.4046 -0.787748 24.6818 -0.829569 27.7268 3.40865C28.7559 4.84043 29.2598 6.58814 29.1524 8.35304C29.045 10.1179 28.333 11.7904 27.1381 13.0846L15.739 25.4249C15.6443 25.5275 15.5297 25.6093 15.4023 25.6652C15.2749 25.7211 15.1374 25.75 14.9984 25.75C14.8595 25.75 14.722 25.7211 14.5946 25.6652C14.4672 25.6093 14.3526 25.5275 14.2579 25.4249L2.85073 13.0397C1.66806 11.7557 0.961024 10.0996 0.848967 8.35089C0.73691 6.6022 1.2267 4.86808 2.23565 3.44129V3.44333ZM12.8781 4.62044C10.6717 1.50935 6.08391 1.51343 3.88259 4.62758C3.14443 5.67199 2.78621 6.9412 2.86841 8.221C2.95061 9.5008 3.46818 10.7128 4.33378 11.6525L15.0005 23.2319L25.657 11.6954C26.5326 10.7472 27.0544 9.5219 27.1332 8.22882C27.212 6.93574 26.8429 5.65521 26.089 4.60616C23.8583 1.50119 19.2594 1.53281 17.0693 4.66736L15.826 6.44629C15.7329 6.57927 15.6097 6.68787 15.4665 6.76303C15.3234 6.83819 15.1644 6.87772 15.003 6.87831C14.8416 6.87891 14.6824 6.84057 14.5387 6.76647C14.395 6.69238 14.271 6.58469 14.177 6.45241L12.877 4.62044H12.8781Z" fill="white"/>
</svg>
