<svg width="20" height="18" viewBox="0 0 20 18" fill="none" xmlns="http://www.w3.org/2000/svg">
<path d="M10.5197 16.7848L17.5544 9.34322C19.2829 7.51475 19.5379 4.50664 17.9022 2.58506C17.4925 2.10234 16.9941 1.713 16.4374 1.44077C15.8807 1.16855 15.2775 1.01917 14.6644 1.00173C14.0514 0.984287 13.4414 1.09916 12.8717 1.33934C12.302 1.57952 11.7845 1.93997 11.3508 2.39869L10.0286 3.79738L8.88704 2.58975C7.15855 0.761279 4.31491 0.491516 2.49839 2.22187C2.04207 2.6553 1.67401 3.18253 1.41667 3.7714C1.15934 4.36027 1.01812 4.99843 1.00163 5.64694C0.985146 6.29546 1.09374 6.94072 1.32079 7.54337C1.54783 8.14602 1.88857 8.69342 2.32222 9.15216L9.53754 16.7848C9.66779 16.9226 9.84444 17 10.0286 17C10.2128 17 10.3895 16.9226 10.5197 16.7848V16.7848Z" stroke="white" stroke-width="1.5" stroke-linecap="round" stroke-linejoin="round"/>
</svg>
