<svg width="29" height="29" viewBox="0 0 29 29" fill="none" xmlns="http://www.w3.org/2000/svg">
<path d="M28.7734 14.5001C28.7734 19.2126 24.9671 23.0642 20.2093 23.0642C15.4968 23.0642 11.6453 19.2126 11.6453 14.5001C11.6453 9.7876 15.4515 5.93604 20.164 5.93604C24.9671 5.93604 28.7734 9.7876 28.7734 14.5001Z" fill="#FFB600"/>
<path d="M20.2093 5.93604C24.9218 5.93604 28.7734 9.7876 28.7734 14.5001C28.7734 19.2126 24.9671 23.0642 20.2093 23.0642C15.4968 23.0642 11.6453 19.2126 11.6453 14.5001" fill="#F7981D"/>
<path d="M20.2095 5.93604C24.922 5.93604 28.7735 9.7876 28.7735 14.5001C28.7735 19.2126 24.9673 23.0642 20.2095 23.0642" fill="#FF8500"/>
<path d="M8.7 5.93604C4.03281 5.98135 0.226562 9.7876 0.226562 14.5001C0.226562 19.2126 4.03281 23.0642 8.79062 23.0642C11.0109 23.0642 13.0047 22.2032 14.5453 20.8438C14.8625 20.572 15.1344 20.2548 15.4062 19.9376H13.6391C13.4125 19.6657 13.1859 19.3485 13.0047 19.0767H16.0406C16.2219 18.8048 16.4031 18.4876 16.5391 18.1704H12.5062C12.3703 17.8985 12.2344 17.5813 12.1437 17.2642H16.8562C17.1281 16.4032 17.3094 15.497 17.3094 14.5454C17.3094 13.911 17.2187 13.322 17.1281 12.7329H11.8719C11.9172 12.4157 12.0078 12.1438 12.0984 11.8267H16.8109C16.7203 11.5095 16.5844 11.1923 16.4484 10.9204H12.4609C12.5969 10.6032 12.7781 10.3313 12.9594 10.0142H15.9953C15.8141 9.69697 15.5875 9.37979 15.3156 9.10791H13.6391C13.9109 8.79072 14.1828 8.51885 14.5 8.24697C13.0047 6.84229 10.9656 6.02666 8.74531 6.02666C8.74531 5.93604 8.74531 5.93604 8.7 5.93604Z" fill="#FF5050"/>
<path d="M0.226562 14.5003C0.226562 19.2128 4.03281 23.0644 8.79062 23.0644C11.0109 23.0644 13.0047 22.2034 14.5453 20.844C14.8625 20.5722 15.1344 20.255 15.4062 19.9378H13.6391C13.4125 19.6659 13.1859 19.3487 13.0047 19.0769H16.0406C16.2219 18.805 16.4031 18.4878 16.5391 18.1706H12.5062C12.3703 17.8987 12.2344 17.5815 12.1437 17.2644H16.8562C17.1281 16.4034 17.3094 15.4972 17.3094 14.5456C17.3094 13.9112 17.2187 13.3222 17.1281 12.7331H11.8719C11.9172 12.4159 12.0078 12.144 12.0984 11.8269H16.8109C16.7203 11.5097 16.5844 11.1925 16.4484 10.9206H12.4609C12.5969 10.6034 12.7781 10.3315 12.9594 10.0144H15.9953C15.8141 9.69717 15.5875 9.37998 15.3156 9.10811H13.6391C13.9109 8.79092 14.1828 8.51904 14.5 8.24717C13.0047 6.84248 10.9656 6.02686 8.74531 6.02686H8.7" fill="#E52836"/>
<path d="M8.79058 23.0644C11.0109 23.0644 13.0046 22.2034 14.5453 20.844C14.8625 20.5722 15.1343 20.255 15.4062 19.9378H13.639C13.4125 19.6659 13.1859 19.3487 13.0046 19.0769H16.0406C16.2218 18.805 16.4031 18.4878 16.539 18.1706H12.5062C12.3703 17.8987 12.2343 17.5815 12.1437 17.2644H16.8562C17.1281 16.4034 17.3093 15.4972 17.3093 14.5456C17.3093 13.9112 17.2187 13.3222 17.1281 12.7331H11.8718C11.9171 12.4159 12.0078 12.144 12.0984 11.8269H16.8109C16.7203 11.5097 16.5843 11.1925 16.4484 10.9206H12.4609C12.5968 10.6034 12.7781 10.3315 12.9593 10.0144H15.9953C15.814 9.69717 15.5875 9.37998 15.3156 9.10811H13.639C13.9109 8.79092 14.1828 8.51904 14.5 8.24717C13.0046 6.84248 10.9656 6.02686 8.74526 6.02686H8.69995" fill="#CB2026"/>
<path d="M11.8265 16.675L11.9625 15.9047C11.9171 15.9047 11.8265 15.95 11.7359 15.95C11.4187 15.95 11.3734 15.7687 11.4187 15.6781L11.6906 14.0922H12.189L12.325 13.2313H11.8718L11.9625 12.6875H11.0562C11.0562 12.6875 10.5125 15.6781 10.5125 16.0406C10.5125 16.5844 10.8296 16.8109 11.2375 16.8109C11.5093 16.8109 11.7359 16.7203 11.8265 16.675Z" fill="white"/>
<path d="M12.1438 15.225C12.1438 16.4937 13.0047 16.8109 13.7297 16.8109C14.4094 16.8109 14.6813 16.675 14.6813 16.675L14.8625 15.814C14.8625 15.814 14.3641 16.0406 13.911 16.0406C12.9141 16.0406 13.0954 15.3156 13.0954 15.3156H14.9532C14.9532 15.3156 15.0891 14.7265 15.0891 14.5C15.0891 13.9109 14.7719 13.1859 13.775 13.1859C12.8235 13.0953 12.1438 14.0922 12.1438 15.225ZM13.7297 13.9109C14.2282 13.9109 14.1375 14.5 14.1375 14.5453H13.1407C13.1407 14.5 13.2313 13.9109 13.7297 13.9109Z" fill="white"/>
<path d="M19.4844 16.6751L19.6656 15.6782C19.6656 15.6782 19.2125 15.9048 18.8953 15.9048C18.2609 15.9048 17.9891 15.4063 17.9891 14.8626C17.9891 13.7751 18.5328 13.186 19.1672 13.186C19.6203 13.186 19.9828 13.4579 19.9828 13.4579L20.1188 12.5063C20.1188 12.5063 19.575 12.2798 19.0766 12.2798C18.0344 12.2798 16.9922 13.186 16.9922 14.9079C16.9922 16.0407 17.5359 16.811 18.6234 16.811C18.9859 16.811 19.4844 16.6751 19.4844 16.6751Z" fill="white"/>
<path d="M6.84224 13.0952C6.20786 13.0952 5.75474 13.2765 5.75474 13.2765L5.6188 14.0468C5.6188 14.0468 6.02661 13.8655 6.61567 13.8655C6.93286 13.8655 7.20474 13.9108 7.20474 14.1827C7.20474 14.364 7.15942 14.4093 7.15942 14.4093C7.15942 14.4093 6.88755 14.4093 6.75161 14.4093C5.9813 14.4093 5.12036 14.7265 5.12036 15.7687C5.12036 16.5843 5.66411 16.7655 5.9813 16.7655C6.61567 16.7655 6.88755 16.3577 6.93286 16.3577L6.88755 16.7202H7.70317L8.06567 14.228C8.06567 13.1405 7.15942 13.0952 6.84224 13.0952ZM7.02349 15.1343C7.02349 15.2702 6.93286 15.9952 6.38911 15.9952C6.11724 15.9952 6.02661 15.7687 6.02661 15.6327C6.02661 15.4062 6.16255 15.089 6.84224 15.089C6.97817 15.1343 7.02349 15.1343 7.02349 15.1343Z" fill="white"/>
<path d="M8.92671 16.7659C9.15327 16.7659 10.2861 16.8112 10.2861 15.5878C10.2861 14.455 9.19858 14.6815 9.19858 14.2284C9.19858 14.0019 9.37983 13.9112 9.69702 13.9112C9.83296 13.9112 10.3314 13.9565 10.3314 13.9565L10.4673 13.1409C10.4673 13.1409 10.1501 13.0503 9.6064 13.0503C8.92671 13.0503 8.24702 13.3222 8.24702 14.2284C8.24702 15.2706 9.37983 15.18 9.37983 15.5878C9.37983 15.8597 9.06265 15.905 8.83608 15.905C8.42827 15.905 8.02046 15.769 8.02046 15.769L7.88452 16.5847C7.92983 16.6753 8.1564 16.7659 8.92671 16.7659Z" fill="white"/>
<path d="M27.0064 12.3706L26.8251 13.594C26.8251 13.594 26.4626 13.1409 25.9642 13.1409C25.1486 13.1409 24.4236 14.1378 24.4236 15.3159C24.4236 16.0409 24.7861 16.8112 25.5564 16.8112C26.1001 16.8112 26.4173 16.4487 26.4173 16.4487L26.372 16.7659H27.2783L27.958 12.4159L27.0064 12.3706ZM26.5986 14.7722C26.5986 15.2706 26.372 15.905 25.8736 15.905C25.5564 15.905 25.3751 15.6331 25.3751 15.18C25.3751 14.455 25.6923 14.0019 26.1001 14.0019C26.4173 14.0019 26.5986 14.2284 26.5986 14.7722Z" fill="white"/>
<path d="M1.90317 16.7206L2.44692 13.4581L2.53755 16.7206H3.17192L4.35005 13.4581L3.85161 16.7206H4.80317L5.52817 12.3706H4.03286L3.12661 15.044L3.0813 12.3706H1.76724L1.04224 16.7206H1.90317Z" fill="white"/>
<path d="M15.95 16.7204C16.2219 15.2251 16.2672 14.0017 16.9016 14.2282C16.9922 13.6392 17.1281 13.4126 17.2188 13.186C17.2188 13.186 17.1734 13.186 17.0375 13.186C16.6297 13.186 16.3125 13.7298 16.3125 13.7298L16.4031 13.2313H15.5422L14.9531 16.7657H15.95V16.7204Z" fill="white"/>
<path d="M21.5688 13.0952C20.9344 13.0952 20.4813 13.2765 20.4813 13.2765L20.3454 14.0468C20.3454 14.0468 20.7532 13.8655 21.3422 13.8655C21.6594 13.8655 21.9313 13.9108 21.9313 14.1827C21.9313 14.364 21.886 14.4093 21.886 14.4093C21.886 14.4093 21.6141 14.4093 21.4782 14.4093C20.7079 14.4093 19.8469 14.7265 19.8469 15.7687C19.8469 16.5843 20.3907 16.7655 20.7079 16.7655C21.3422 16.7655 21.6141 16.3577 21.6594 16.3577L21.6141 16.7202H22.4297L22.7922 14.228C22.8375 13.1405 21.886 13.0952 21.5688 13.0952ZM21.7954 15.1343C21.7954 15.2702 21.7047 15.9952 21.161 15.9952C20.8891 15.9952 20.7985 15.7687 20.7985 15.6327C20.7985 15.4062 20.9344 15.089 21.6141 15.089C21.75 15.1343 21.75 15.1343 21.7954 15.1343Z" fill="white"/>
<path d="M23.5625 16.7204C23.8344 15.2251 23.8797 14.0017 24.5141 14.2282C24.6047 13.6392 24.7407 13.4126 24.8313 13.186C24.8313 13.186 24.786 13.186 24.65 13.186C24.2422 13.186 23.925 13.7298 23.925 13.7298L24.0157 13.2313H23.1547L22.5657 16.7657H23.5625V16.7204Z" fill="white"/>
<path d="M10.4219 16.0406C10.4219 16.5844 10.7391 16.8109 11.1469 16.8109C11.4641 16.8109 11.7359 16.7203 11.8266 16.675L11.9625 15.9047C11.9172 15.9047 11.8266 15.95 11.7359 15.95C11.4187 15.95 11.3734 15.7687 11.4188 15.6781L11.6906 14.0922H12.1891L12.325 13.2313H11.8719L11.9625 12.6875" fill="#DCE5E5"/>
<path d="M12.5969 15.225C12.5969 16.4937 13.0047 16.8109 13.7297 16.8109C14.4094 16.8109 14.6813 16.675 14.6813 16.675L14.8625 15.814C14.8625 15.814 14.3641 16.0406 13.911 16.0406C12.9141 16.0406 13.0954 15.3156 13.0954 15.3156H14.9532C14.9532 15.3156 15.0891 14.7265 15.0891 14.5C15.0891 13.9109 14.7719 13.1859 13.775 13.1859C12.8235 13.0953 12.5969 14.0922 12.5969 15.225ZM13.7297 13.9109C14.2282 13.9109 14.3188 14.5 14.3188 14.5453H13.1407C13.1407 14.5 13.2313 13.9109 13.7297 13.9109Z" fill="#DCE5E5"/>
<path d="M19.4844 16.6751L19.6656 15.6782C19.6656 15.6782 19.2125 15.9048 18.8953 15.9048C18.2609 15.9048 17.9891 15.4063 17.9891 14.8626C17.9891 13.7751 18.5328 13.186 19.1672 13.186C19.6203 13.186 19.9828 13.4579 19.9828 13.4579L20.1188 12.5063C20.1188 12.5063 19.575 12.2798 19.0766 12.2798C18.0344 12.2798 17.4453 13.186 17.4453 14.9079C17.4453 16.0407 17.5359 16.811 18.6234 16.811C18.9859 16.811 19.4844 16.6751 19.4844 16.6751Z" fill="#DCE5E5"/>
<path d="M5.6188 14.0923C5.6188 14.0923 6.02661 13.911 6.61567 13.911C6.93286 13.911 7.20474 13.9563 7.20474 14.2282C7.20474 14.4095 7.15942 14.4548 7.15942 14.4548C7.15942 14.4548 6.88755 14.4548 6.75161 14.4548C5.9813 14.4548 5.12036 14.772 5.12036 15.8142C5.12036 16.6298 5.66411 16.811 5.9813 16.811C6.61567 16.811 6.88755 16.4032 6.93286 16.4032L6.88755 16.7657H7.70317L8.06567 14.2735C8.06567 13.2313 7.15942 13.186 6.79692 13.186M7.47661 15.1345C7.47661 15.2704 6.93286 15.9954 6.38911 15.9954C6.11724 15.9954 6.02661 15.7688 6.02661 15.6329C6.02661 15.4063 6.16255 15.0892 6.84224 15.0892C6.97817 15.1345 7.47661 15.1345 7.47661 15.1345Z" fill="#DCE5E5"/>
<path d="M7.92969 16.6753C7.92969 16.6753 8.20156 16.7659 8.97187 16.7659C9.19844 16.7659 10.3312 16.8112 10.3312 15.5878C10.3312 14.455 9.24375 14.6815 9.24375 14.2284C9.24375 14.0019 9.425 13.9112 9.74219 13.9112C9.87812 13.9112 10.3766 13.9565 10.3766 13.9565L10.5125 13.1409C10.5125 13.1409 10.1953 13.0503 9.65156 13.0503C8.97187 13.0503 8.74531 13.3222 8.74531 14.2284C8.74531 15.2706 9.425 15.18 9.425 15.5878C9.425 15.8597 9.10781 15.905 8.88125 15.905" fill="#DCE5E5"/>
<path d="M26.825 13.5937C26.825 13.5937 26.4625 13.1405 25.9641 13.1405C25.1485 13.1405 24.8766 14.1374 24.8766 15.3155C24.8766 16.0405 24.786 16.8108 25.5563 16.8108C26.1 16.8108 26.4172 16.4483 26.4172 16.4483L26.3719 16.7655H27.2781L27.9578 12.4155M26.7797 14.7718C26.7797 15.2702 26.3719 15.9046 25.8735 15.9046C25.5563 15.9046 25.375 15.6327 25.375 15.1796C25.375 14.4546 25.6922 14.0015 26.1 14.0015C26.4172 14.0015 26.7797 14.228 26.7797 14.7718Z" fill="#DCE5E5"/>
<path d="M1.90317 16.7206L2.44692 13.4581L2.53755 16.7206H3.17192L4.35005 13.4581L3.85161 16.7206H4.80317L5.52817 12.3706H4.39536L3.12661 15.044L3.0813 12.3706H2.58286L1.04224 16.7206H1.90317Z" fill="#DCE5E5"/>
<path d="M14.9985 16.7204H15.9501C16.222 15.2251 16.2673 14.0017 16.9017 14.2282C16.9923 13.6392 17.1282 13.4126 17.2188 13.186C17.2188 13.186 17.1735 13.186 17.0376 13.186C16.6298 13.186 16.3126 13.7298 16.3126 13.7298L16.4032 13.2313" fill="#DCE5E5"/>
<path d="M20.3454 14.0923C20.3454 14.0923 20.7532 13.911 21.3422 13.911C21.6594 13.911 21.9313 13.9563 21.9313 14.2282C21.9313 14.4095 21.886 14.4548 21.886 14.4548C21.886 14.4548 21.6141 14.4548 21.4782 14.4548C20.7079 14.4548 19.8469 14.772 19.8469 15.8142C19.8469 16.6298 20.3907 16.811 20.7079 16.811C21.3422 16.811 21.6141 16.4032 21.6594 16.4032L21.6141 16.7657H22.4297L22.7922 14.2735C22.7922 13.2313 21.886 13.186 21.5235 13.186M22.2032 15.1345C22.2032 15.2704 21.6594 15.9954 21.1157 15.9954C20.8438 15.9954 20.7532 15.7688 20.7532 15.6329C20.7532 15.4063 20.8891 15.0892 21.5688 15.0892C21.75 15.1345 22.2032 15.1345 22.2032 15.1345Z" fill="#DCE5E5"/>
<path d="M22.6111 16.7204H23.5626C23.8345 15.2251 23.8798 14.0017 24.5142 14.2282C24.6048 13.6392 24.7408 13.4126 24.8314 13.186C24.8314 13.186 24.7861 13.186 24.6501 13.186C24.2423 13.186 23.9251 13.7298 23.9251 13.7298L24.0158 13.2313" fill="#DCE5E5"/>
</svg>
