<svg width="36" height="11" viewBox="0 0 36 11" fill="none" xmlns="http://www.w3.org/2000/svg">
<path fill-rule="evenodd" clip-rule="evenodd" d="M5.71959 1.1934C6.00262 1.19167 6.84375 1.11451 7.20004 2.33925C7.44004 3.16425 7.82234 4.51564 8.34696 6.39342H8.56061C9.12321 4.41374 9.50969 3.06235 9.72004 2.33925C10.08 1.10175 10.98 1.19342 11.34 1.19342L14.1175 1.19342V9.9934H11.2866V4.80743H11.0968L9.51872 9.9934H7.38884L5.81076 4.80359H5.62093V9.9934H2.79004V1.19342L5.71959 1.1934ZM18.1826 1.19342V6.38326H18.4085L20.3281 2.11569C20.7007 1.26644 21.4949 1.19342 21.4949 1.19342H24.2343V9.99342H21.3443V4.80359H21.1185L19.2365 9.07115C18.8639 9.91656 18.0321 9.99342 18.0321 9.99342H15.2926V1.19342H18.1826ZM34.2235 5.37524C33.8204 6.53876 32.5544 7.37204 31.1528 7.37204H28.122V9.99342H25.3738V5.37524H34.2235Z" fill="#0F754E"/>
<path fill-rule="evenodd" clip-rule="evenodd" d="M31.2854 1.19336H25.2297C25.3739 3.15254 27.0304 4.82972 28.7452 4.82972H34.4145C34.7417 3.20141 33.6154 1.19336 31.2854 1.19336Z" fill="url(#paint0_linear_1742_543)"/>
<defs>
<linearGradient id="paint0_linear_1742_543" x1="34.4701" y1="3.48079" x2="25.2297" y2="3.48079" gradientUnits="userSpaceOnUse">
<stop stop-color="#1F5CD7"/>
<stop offset="1" stop-color="#02AEFF"/>
</linearGradient>
</defs>
</svg>
