<svg width="43" height="44" viewBox="0 0 43 44" fill="none" xmlns="http://www.w3.org/2000/svg">
<g clip-path="url(#clip0_1742_549)">
<path fill-rule="evenodd" clip-rule="evenodd" d="M17.4402 17.1494L13.3549 26.8715L10.6082 26.8748L8.28222 18.7316L8.09375 18.1181L8.1093 18.1268L8.13484 18.1413L8.10977 18.1279L8.10947 18.1269C8.12167 18.1336 8.13368 18.1405 8.14583 18.1473C8.5643 18.3741 10.4221 19.4582 11.5708 21.2143C11.7457 22.1074 11.9131 22.9187 12.1495 23.7938L14.691 17.1494H17.4402L17.4402 17.1494Z" fill="#006CB5"/>
<path fill-rule="evenodd" clip-rule="evenodd" d="M28.4917 23.6972C28.4726 25.721 26.7033 27.0277 23.9758 27.0277C22.8132 27.0148 21.6921 26.7809 21.0833 26.5077L21.4478 24.3272L21.7831 24.4842C22.6371 24.8478 23.1878 24.9937 24.2269 24.9937C24.9735 24.9937 25.7718 24.6942 25.7774 24.0403C25.7807 23.6135 25.4422 23.3106 24.4321 22.8335C23.4488 22.3666 22.1451 21.5866 22.1617 20.1868C22.1742 18.2929 23.9826 16.9727 26.5465 16.9727C27.5507 16.9727 28.3548 17.1827 28.8702 17.3823L28.5184 19.4929L28.2832 19.3794C27.8077 19.1832 27.192 18.9928 26.3413 19.0064C25.328 19.0064 24.8558 19.4401 24.8558 19.8464C24.8525 20.2995 25.4064 20.6034 26.3122 21.0531C27.811 21.747 28.5049 22.5903 28.4917 23.6972H28.4917Z" fill="#006CB5"/>
<path fill-rule="evenodd" clip-rule="evenodd" d="M35.5265 17.1494H33.5229C32.9009 17.1494 32.4346 17.3227 32.1644 17.9594L28.3101 26.8843H31.0333C31.0333 26.8843 31.4794 25.6843 31.5813 25.4206C31.8774 25.4206 34.5264 25.4274 34.9042 25.4274C34.9794 25.768 35.217 26.8843 35.217 26.8843H37.6251L35.5265 17.1494V17.1494ZM32.3268 23.4302C32.7931 22.2184 33.2607 20.9978 33.7048 19.7765C33.9602 20.9952 34.2213 22.2124 34.4805 23.4302H32.3268H32.3268Z" fill="#006CB5"/>
<path fill-rule="evenodd" clip-rule="evenodd" d="M18.4893 17.1392H21.0833L19.4602 26.8809H16.8669L18.4893 17.1392Z" fill="#006CB5"/>
<path fill-rule="evenodd" clip-rule="evenodd" d="M5.375 17.0532L9.76407 17.0564C10.3053 17.076 10.7415 17.2525 10.8949 17.8458L11.5707 21.2142C10.422 19.458 8.56422 18.374 8.14574 18.1471C8.13359 18.1404 8.12159 18.1335 8.10939 18.1268L8.10968 18.1278L8.13475 18.1411L8.10921 18.1266C8.03926 18.0874 7.96853 18.0487 7.89714 18.0109C7.13051 17.6038 6.28265 17.2774 5.375 17.0532L5.375 17.0532Z" fill="#FAA841"/>
</g>
<defs>
<clipPath id="clip0_1742_549">
<rect width="43" height="44" fill="white"/>
</clipPath>
</defs>
</svg>
